# xmcd CD database file
#
# Track frame offsets:
#	150
#	24450
#	43575
#	72525
#	94950
#	120825
#	147750
#	170700
#	199200
#	234525
#	261375
#	291075
#	306000
#
# Disc length: 4483 seconds
#
# Revision: 4
# Processed by: cddbd v1.5.1PL0 Copyright (c) Steve Scherf et al.
# Submitted via: CDex 1.51
#
DISCID=bf11810d
DTITLE=Magic Slim - Zoo Bar Collection (Vol.3)
DYEAR=1998
DGENRE=Blues
TTITLE0=You Don't Have To Go
TTITLE1=See What You're Doin' To Me
TTITLE2=Who's Loving You Tonight
TTITLE3=Early In The Morning
TTITLE4=You Know What My Body Needs
TTITLE5=Talk To Your Daughter
TTITLE6=Drink Muddy Water
TTITLE7=Goin' To New York
TTITLE8=Last Night
TTITLE9=She Don't Love Poor Me
TTITLE10=Teardrop
TTITLE11=How Blue Can You Get
TTITLE12=Tin Pan Alley/The Blues Are All Right
EXTD=YEAR: 1998
EXTT0=
EXTT1=
EXTT2=
EXTT3=
EXTT4=
EXTT5=
EXTT6=
EXTT7=
EXTT8=
EXTT9=
EXTT10=
EXTT11=
EXTT12=
PLAYORDER=
